<?xml version="1.0" encoding="UTF-8" standalone="no"?>
<svg
   xmlns:dc="http://purl.org/dc/elements/1.1/"
   xmlns:cc="http://creativecommons.org/ns#"
   xmlns:rdf="http://www.w3.org/1999/02/22-rdf-syntax-ns#"
   xmlns:svg="http://www.w3.org/2000/svg"
   xmlns="http://www.w3.org/2000/svg"
   width="600"
   height="600"
   viewBox="0 0 158.75 158.75"
   version="1.1"
   id="svg8">
  <defs
     id="defs2" />
  <metadata
     id="metadata5">
    <rdf:RDF>
      <cc:Work
         rdf:about="">
        <dc:format>image/svg+xml</dc:format>
        <dc:type
           rdf:resource="http://purl.org/dc/dcmitype/StillImage" />
        <dc:title></dc:title>
      </cc:Work>
    </rdf:RDF>
  </metadata>
  <g
     id="layer1"
     transform="translate(0,-138.24998)">
    <path
       style="opacity:1;fill:#577a47;fill-opacity:1;stroke:none;stroke-width:0.2;stroke-miterlimit:4;stroke-dasharray:none;stroke-opacity:1"
       d="M 300,10.714844 A 289.28571,289.28571 0 0 0 10.714844,300 289.28571,289.28571 0 0 0 300,589.28516 289.28571,289.28571 0 0 0 589.28516,300 289.28571,289.28571 0 0 0 300,10.714844 Z M 300,25 A 274.99999,274.99999 0 0 1 575,300 274.99999,274.99999 0 0 1 300,575 274.99999,274.99999 0 0 1 25,300 274.99999,274.99999 0 0 1 300,25 Z"
       transform="matrix(0.26458333,0,0,0.26458333,0,138.24998)"
       id="path815" />
    <rect
       style="opacity:1;fill:none;fill-opacity:1;stroke:#577a47;stroke-width:3.60397577;stroke-miterlimit:4;stroke-dasharray:none;stroke-opacity:1"
       id="rect815"
       width="63.586029"
       height="63.201824"
       x="47.581985"
       y="186.02406" />
  </g>
</svg>
