<?xml version="1.0" encoding="UTF-8" standalone="no"?>
<svg
   xmlns:dc="http://purl.org/dc/elements/1.1/"
   xmlns:cc="http://creativecommons.org/ns#"
   xmlns:rdf="http://www.w3.org/1999/02/22-rdf-syntax-ns#"
   xmlns:svg="http://www.w3.org/2000/svg"
   xmlns="http://www.w3.org/2000/svg"
   xmlns:sodipodi="http://sodipodi.sourceforge.net/DTD/sodipodi-0.dtd"
   xmlns:inkscape="http://www.inkscape.org/namespaces/inkscape"
   id="svg8"
   version="1.1"
   viewBox="0 0 158.75 158.75"
   height="600"
   width="600"
   sodipodi:docname="hybrid_sleep.svg"
   inkscape:version="0.92.5 (2060ec1f9f, 2020-04-08)">
  <sodipodi:namedview
     pagecolor="#ffffff"
     bordercolor="#666666"
     borderopacity="1"
     objecttolerance="10"
     gridtolerance="10"
     guidetolerance="10"
     inkscape:pageopacity="0"
     inkscape:pageshadow="2"
     inkscape:window-width="1360"
     inkscape:window-height="715"
     id="namedview12"
     showgrid="false"
     inkscape:zoom="0.39333333"
     inkscape:cx="7.6271186"
     inkscape:cy="300"
     inkscape:window-x="0"
     inkscape:window-y="24"
     inkscape:window-maximized="1"
     inkscape:current-layer="layer1" />
  <defs
     id="defs2" />
  <metadata
     id="metadata5">
    <rdf:RDF>
      <cc:Work
         rdf:about="">
        <dc:format>image/svg+xml</dc:format>
        <dc:type
           rdf:resource="http://purl.org/dc/dcmitype/StillImage" />
        <dc:title />
      </cc:Work>
    </rdf:RDF>
  </metadata>
  <g
     transform="translate(0,-138.24998)"
     id="layer1">
    <path
       id="path815"
       d="M 79.374999,141.08495 A 76.540176,76.540176 0 0 0 2.83497,217.62498 76.540176,76.540176 0 0 0 79.374999,294.16501 76.540176,76.540176 0 0 0 155.91503,217.62498 76.540176,76.540176 0 0 0 79.374999,141.08495 Z m 0,3.77961 A 72.760413,72.760413 0 0 1 152.13542,217.62498 72.760413,72.760413 0 0 1 79.374999,290.38539 72.760413,72.760413 0 0 1 6.6145841,217.62498 72.760413,72.760413 0 0 1 79.374999,144.86456 Z"
       style="opacity:1;fill:#577a47;fill-opacity:1;stroke:none;stroke-width:0.05291667;stroke-miterlimit:4;stroke-dasharray:none;stroke-opacity:1"
       inkscape:connector-curvature="0" />
    <path
       id="path816"
       d="m 42.252519,153.58616 a 74.259187,74.259187 0 0 0 -27.180842,101.44033 74.259187,74.259187 0 0 0 101.439843,27.18004 74.259187,74.259187 0 0 0 18.09678,-14.80476 74.259195,74.259195 0 0 1 -79.465855,-35.51016 74.259195,74.259195 0 0 1 9.084053,-86.63555 74.259187,74.259187 0 0 0 -21.973979,8.3301 z"
       style="opacity:1;fill:none;fill-opacity:1;stroke:#577a47;stroke-width:3.91065311;stroke-miterlimit:4;stroke-dasharray:none;stroke-opacity:1"
       inkscape:connector-curvature="0" />
    <text
       transform="rotate(10.620778)"
       id="text826"
       y="211.77435"
       x="106.86416"
       style="font-style:normal;font-weight:normal;font-size:24.50721741px;line-height:1.25;font-family:sans-serif;letter-spacing:0px;word-spacing:0px;fill:#577a47;fill-opacity:1;stroke:none;stroke-width:0.61268038"
       xml:space="preserve"><tspan
         style="font-style:normal;font-variant:normal;font-weight:normal;font-stretch:normal;font-size:58.81731796px;font-family:Raleway;-inkscape-font-specification:Raleway;fill:#577a47;fill-opacity:1;stroke-width:0.61268038"
         y="211.77435"
         x="106.86416"
         id="tspan824">z</tspan></text>
    <text
       transform="rotate(-9.4288892)"
       id="text826-7"
       y="217.45146"
       x="70.328842"
       style="font-style:normal;font-weight:normal;font-size:20.83559418px;line-height:1.25;font-family:sans-serif;letter-spacing:0px;word-spacing:0px;fill:#577a47;fill-opacity:1;stroke:none;stroke-width:0.52088982"
       xml:space="preserve"><tspan
         style="font-style:normal;font-variant:normal;font-weight:normal;font-stretch:normal;font-size:50.0054245px;font-family:Raleway;-inkscape-font-specification:Raleway;fill:#577a47;fill-opacity:1;stroke-width:0.52088982"
         y="217.45146"
         x="70.328842"
         id="tspan824-2">z</tspan></text>
  </g>
</svg>
